PathFileType	3	(X/Y/Z)	F:\ViconData\AntennenMessung\Messung1\Session1\ID10.trc
DataRate	CameraRate	NumFrames	NumMarkers	Units	OrigDataRate	OrigDataStartFrame	OrigNumFrames
120.0	120.0	4	70	mm	120.0	782	1251	
Frame#	Time	Ashort			Along			Atop			A4			Bshort			Blong			Btop			B4			Cshort			Clong			Ctop			C4			Dshort			Dlong			Dtop			D4			Eshort			Elong			Etop			E4			Fshort			Flong			Ftop			F4			Gshort			Glong			Gtop			G4			Hshort			Hlong			Htop			H4			I1			I2			I3			I4			I5			WandAshort			WandAlong			WandAtop			WandA4			WandA15			WandBshort			WandB4			WandB5			WandBtop			WandBlong			WandCshort			WandClong			WandCtop			WandC4			WandC5			Acenter			Aantenna			Bcenter			Bantenna			Ccenter			Cantenna			Dcenter			Dantenna			Ecenter			Eantenna			Fcenter			Fantenna			Gcenter			Gantenna			Hcenter			Hantenna			Icenter			Iantenna			
		X1	Y1	Z1	X2	Y2	Z2	X3	Y3	Z3	X4	Y4	Z4	X5	Y5	Z5	X6	Y6	Z6	X7	Y7	Z7	X8	Y8	Z8	X9	Y9	Z9	X10	Y10	Z10	X11	Y11	Z11	X12	Y12	Z12	X13	Y13	Z13	X14	Y14	Z14	X15	Y15	Z15	X16	Y16	Z16	X17	Y17	Z17	X18	Y18	Z18	X19	Y19	Z19	X20	Y20	Z20	X21	Y21	Z21	X22	Y22	Z22	X23	Y23	Z23	X24	Y24	Z24	X25	Y25	Z25	X26	Y26	Z26	X27	Y27	Z27	X28	Y28	Z28	X29	Y29	Z29	X30	Y30	Z30	X31	Y31	Z31	X32	Y32	Z32	X33	Y33	Z33	X34	Y34	Z34	X35	Y35	Z35	X36	Y36	Z36	X37	Y37	Z37	X38	Y38	Z38	X39	Y39	Z39	X40	Y40	Z40	X41	Y41	Z41	X42	Y42	Z42	X43	Y43	Z43	X44	Y44	Z44	X45	Y45	Z45	X46	Y46	Z46	X47	Y47	Z47	X48	Y48	Z48	X49	Y49	Z49	X50	Y50	Z50	X51	Y51	Z51	X52	Y52	Z52	X53	Y53	Z53	X54	Y54	Z54	X55	Y55	Z55	X56	Y56	Z56	X57	Y57	Z57	X58	Y58	Z58	X59	Y59	Z59	X60	Y60	Z60	X61	Y61	Z61	X62	Y62	Z62	X63	Y63	Z63	X64	Y64	Z64	X65	Y65	Z65	X66	Y66	Z66	X67	Y67	Z67	X68	Y68	Z68	X69	Y69	Z69	X70	Y70	Z70	
782	6.5083333	-1038.2968	214.72108	-1644.1853	-1109.3298	203.99243	-1599.4352	-1063.8811	172.68994	-1625.3983	-1054.2	262.21655	-1634.9839	-1352.9008	235.29347	1003.808	-1281.4034	227.17918	1052.3876	-1322.8685	194.08998	1020.8898	-1284.5819	287.93781	1052.7356	814.01587	187.64583	1209.7203	892.65588	179.31017	1178.7286	844.46417	145.47641	1198.2509	860.61261	292.64865	1167.426	1115.729	209.80406	-1401.7205	1056.2618	194.20122	-1460.3467	1095.0237	162.23404	-1423.9369	1069.8252	238.66771	-1425.8579	-1204.5229	1685.9645	-1563.241	-1129.1567	1688.2861	-1606.0765	-1173.1838	1724.3477	-1581.8521	-1134.0378	1581.0359	-1603.8666	-1239.7595	1699.3478	1119.4885	-1309.3334	1698.791	1071.8898	-1270.5835	1736.5684	1096.9513	-1244.6554	1593.8641	1106.5878	988.82855	1664.236	1162.297	957.40833	1700.4115	1183.802	922.6698	1662.1842	1215.0836	939.79279	1659.4069	1159.9634	999.05762	1668.5718	-1579.4734	1058.8383	1670.1381	-1518.6497	1024.9915	1708.0126	-1551.1279	1059.2451	1672.1471	-1585.454	31.395369	196.64923	-944.5611	115.60145	204.03358	-932.37335	72.644539	161.28603	-939.8631	72.653618	200.62775	-971.1991	61.756279	198.45166	-892.21442																																														-1069.126	210.06468	-1624.7631	-1074.545	248.68079	-1624.1069	-1321.4911	231.72878	1025.1494	-1320.074	270.45581	1029.5323	847.82349	184.06229	1196.3969	851.20227	222.87086	1194.532	1088.7346	202.72134	-1428.3329	1082.7826	241.03928	-1432.4935	-1171.9701	1686.9673	-1581.7429	-1170.7046	1647.9878	-1581.629	-1271.0546	1699.0973	1098.078	-1271.5446	1660.1179	1099.2501	953.06482	1705.4121	1186.7749	972.83832	1733.5342	1168.3585	1026.4694	1669.2899	-1551.5833	1027.9567	1630.321	-1552.0416	69.142357	199.9594	-939.09772	65.625671	238.79292	-938.32916
783	6.5166667	-1038.2461	214.5489	-1644.2031	-1109.302	203.81625	-1599.3528	-1063.7787	172.67867	-1625.4298	-1054.193	262.21707	-1634.9601	-1352.9261	235.33351	1003.8502	-1281.4056	227.16048	1052.3958	-1322.884	194.16096	1020.8179	-1284.526	287.94183	1052.7278	814.12067	187.65216	1209.698	892.69952	179.41187	1178.7433	844.52179	145.48518	1198.3256	860.56671	292.84146	1167.4717	1115.7454	209.82538	-1401.7277	1056.2136	194.16295	-1460.3527	1095.0603	162.2881	-1423.8829	1069.8538	238.68875	-1425.8298	-1204.5247	1685.9635	-1563.2463	-1129.1432	1688.287	-1606.0808	-1173.152	1724.4121	-1581.9417	-1133.7643	1581.0216	-1603.7202	-1239.7638	1699.3599	1119.4944	-1309.1346	1698.5031	1071.7953	-1270.5859	1736.5697	1096.9514	-1244.8845	1593.7394	1106.0317	988.90308	1664.3073	1162.3207	957.41162	1700.3766	1183.8137	922.69238	1662.0537	1215.0134	939.75922	1659.4242	1159.9653	999.06543	1668.5354	-1579.4337	1058.7184	1669.9744	-1518.6543	1024.9884	1708.0264	-1551.1208	1059.2355	1672.1805	-1585.5576	31.507347	196.37976	-944.38336	115.59998	203.98924	-932.33789	72.61483	161.21478	-939.85333	72.666954	200.63451	-971.19391	61.735817	198.4232	-892.18073																																														-1068.9988	209.90384	-1624.7921	-1074.4142	248.52037	-1624.1306	-1321.5347	231.74625	1025.1576	-1320.1444	270.4642	1029.6281	847.82294	184.1179	1196.4215	851.13947	222.92952	1194.5087	1088.7664	202.72739	-1428.2957	1082.8032	241.0414	-1432.4763	-1171.9065	1686.9688	-1581.781	-1170.6101	1647.9907	-1581.614	-1270.9008	1698.9752	1098.0847	-1271.2273	1659.9944	1099.2599	953.04865	1705.3738	1186.7913	972.79498	1733.553	1168.4333	1026.3979	1669.1946	-1551.585	1027.8126	1630.223	-1552.0507	69.005241	199.7729	-939.01208	65.371048	238.59398	-938.16522
784	6.525	-1038.2388	214.54153	-1644.1829	-1109.2971	203.94124	-1599.41	-1063.869	172.68015	-1625.3804	-1054.2072	262.2124	-1634.9607	-1352.9951	235.18425	1003.8198	-1281.4163	227.19092	1052.4385	-1322.8322	194.15604	1020.795	-1284.6487	287.94049	1052.7937	813.95215	187.67476	1209.663	892.1142	178.44519	1179.356	844.46008	145.49629	1198.2705	860.65155	292.70441	1167.4386	1115.7601	209.83362	-1401.7367	1056.1997	194.1713	-1460.3632	1095.0944	162.48015	-1423.9636	1069.8407	238.64934	-1425.8447	-1204.5107	1685.9501	-1563.2402	-1129.1804	1688.402	-1606.5797	-1173.1604	1724.4117	-1581.9415	-1133.7605	1581.0082	-1603.7163	-1239.7395	1699.3342	1119.4829	-1309.3069	1698.7612	1071.8844	-1270.6115	1736.5957	1096.9565	-1244.6382	1594.0583	1106.6437	988.92419	1664.3143	1162.3163	957.36847	1700.4153	1183.7419	922.77081	1662.1205	1215.0527	939.79926	1659.3845	1159.9161	999.06653	1668.5078	-1579.4143	1058.8522	1670.1538	-1518.6343	1024.9907	1708.0377	-1551.1334	1059.239	1672.1393	-1585.4519	31.352837	196.70432	-944.62054	115.5176	203.97791	-932.35297	72.698677	161.74315	-940.2677	72.652794	200.61687	-971.18591	61.7029	198.64346	-892.04895																																														-1069.0449	209.94595	-1624.7723	-1074.4097	248.57005	-1624.1421	-1321.5973	231.67799	1025.1461	-1320.3232	270.39771	1029.6362	848.22693	183.6275	1196.373	852.05627	222.39108	1194.4441	1088.7749	202.73747	-1428.2986	1082.761	241.04951	-1432.4241	-1171.9585	1687.0094	-1581.9683	-1170.7059	1648.0295	-1581.9963	-1271.0549	1699.0763	1098.0565	-1271.5159	1660.0957	1099.1996	953.01935	1705.3907	1186.6947	972.70422	1733.5498	1168.2404	1026.4783	1669.2625	-1551.5466	1027.9735	1630.2933	-1551.9619	69.224327	199.97719	-939.10046	65.696556	238.79921	-937.91534
785	6.5333333	-1038.2251	214.53571	-1644.1913	-1109.3329	204.04059	-1599.4208	-1063.9154	172.65735	-1625.3661	-1054.1962	262.24841	-1634.9696	-1353.0306	235.01799	1003.799	-1281.4022	227.19809	1052.3889	-1322.8575	194.13454	1020.8082	-1284.6327	287.93878	1052.7974	814.05432	187.80605	1209.7144	892.66229	179.2431	1178.7626	844.53778	145.47815	1198.2753	860.52307	292.7337	1167.376	1115.749	209.81895	-1401.7306	1056.2214	194.10934	-1460.2869	1095.0542	162.4122	-1423.9545	1069.861	238.66461	-1425.8422	-1204.5059	1685.9607	-1563.2661	-1129.1487	1688.2841	-1606.0552	-1173.1539	1724.4121	-1581.9427	-1134.0223	1581.0322	-1603.8562	-1239.724	1699.2992	1119.4735	-1309.2684	1698.6898	1071.8544	-1270.4761	1736.4049	1096.8909	-1244.7067	1593.8195	1106.5516	988.87811	1664.2686	1162.322	957.42285	1700.3722	1183.774	922.64728	1662.0905	1214.9878	939.74677	1659.4084	1159.9695	999.07098	1668.5293	-1579.4396	1058.8468	1670.1565	-1518.6403	1024.9938	1708.0238	-1551.1272	1059.2448	1672.1353	-1585.455	31.567808	196.38327	-944.49072	115.59576	203.99249	-932.35431	72.614639	161.18761	-939.84351	72.658783	200.62711	-971.20819	61.710075	198.65723	-892.03198																																														-1069.0555	209.98528	-1624.7798	-1074.3754	248.616	-1624.1732	-1321.6637	231.59357	1025.077	-1320.4296	270.32333	1029.4907	847.98889	184.10945	1196.3527	851.4549	222.9071	1194.4216	1088.7192	202.68567	-1428.3192	1082.6936	240.99307	-1432.4708	-1171.9053	1686.9657	-1581.7772	-1170.6057	1647.9877	-1581.6049	-1270.9642	1699.0254	1098.0823	-1271.4733	1660.0485	1099.3246	953.06567	1705.3732	1186.7454	972.84784	1733.5215	1168.3784	1026.485	1669.2754	-1551.5562	1027.9846	1630.3068	-1551.9877	69.010551	199.77391	-939.08276	65.384308	238.59743	-938.31732
